<?xml version="1.0" standalone="no"?><!DOCTYPE svg PUBLIC "-//W3C//DTD SVG 1.1//EN" "http://www.w3.org/Graphics/SVG/1.1/DTD/svg11.dtd"><svg t="1528957381012" class="icon" style="" viewBox="0 0 1024 1024" version="1.1" xmlns="http://www.w3.org/2000/svg" p-id="1813" xmlns:xlink="http://www.w3.org/1999/xlink" width="200" height="200"><defs><style type="text/css"></style></defs><path d="M768.1 584.6c-20.9-4.3-34.9 8.5-35.6 34-2.6 88.8-76.8 164.8-172 165.5-31.4 0.3-62.8 0.1-94.1 0-98-0.1-172.4-71.4-177.2-169.4-1-19.5-11.4-31.1-28-31-17.2 0.1-27.6 12.3-27.6 32.6-0.1 101.1 73.7 193.3 175.5 217.3 23.4 5.5 48.1 5.9 72.9 8.8v58.4c-41 0-81.1-0.1-121.2 0.1-6.4 0-12.9 0.7-19 2.4-12.9 3.5-20.4 15.1-19.4 28.2 0.9 12.5 9.7 22.4 22.3 24.5 5.9 1 11.9 1.3 17.9 1.4 99.2 0.1 198.4 0.1 297.7 0 5.5 0 11.1-0.4 16.5-1.2 15.6-2.4 24.7-14.8 22.9-30.3-1.9-16.1-13.6-24.9-33.9-25-36.9-0.2-73.8-0.1-110.8-0.1h-15.9c0-17.9 0.4-34-0.1-50-0.3-8.7 3.3-10.8 11.5-10.9 15.2-0.3 30.5-0.4 45.4-2.9 85.5-14.5 145-62.9 177.3-142.8 9.6-23.8 11.8-50.6 17.4-76.1v-8.3c-4.9-10.8-8.6-22.3-22.5-25.2z" p-id="1814"></path><path d="M322.2 478c0.6 35.9-1.5 72.3 3.2 107.7 15.1 113.8 136.6 186.6 245.4 149 80.8-27.9 129.7-97.3 130.1-186 0.4-95.5 0.2-191.1 0-286.6 0-11.5-0.7-23.1-2.3-34.5-13.3-97.8-102.8-169.2-205.3-160.3-99.8 8.7-170 92.2-170.9 183.6-0.5 51.2-0.1 102.5-0.1 153.7h-0.1c0 24.5-0.4 49 0 73.4z m55.6-216.7c0.2-65.6 37.2-115.2 99-133.8 77.4-23.2 163.8 37.2 166.4 118 1.7 53 0.3 106.1 0.3 159.2h0.1c0 52.6 0.9 105.3-0.2 157.8-1.3 60.9-51.5 115.6-111.9 124.1-64.9 9.2-127.3-28.9-145.7-90-4.6-15.2-7.6-31.5-7.7-47.3-0.7-96-0.5-192-0.3-288z" p-id="1815"></path></svg>